<?xml version="1.0" standalone="no"?>
<!DOCTYPE svg PUBLIC "-//W3C//DTD SVG 20010904//EN"
 "http://www.w3.org/TR/2001/REC-SVG-20010904/DTD/svg10.dtd">
<svg version="1.0" xmlns="http://www.w3.org/2000/svg"
 width="1280.000000pt" height="640.000000pt" viewBox="0 0 1280.000000 640.000000"
 preserveAspectRatio="xMidYMid meet">
<metadata>
Created by potrace 1.15, written by Peter Selinger 2001-2017
</metadata>
<g transform="translate(0.000000,640.000000) scale(0.100000,-0.100000)"
fill="#000000" stroke="none">
<path d="M113 3453 c4 -186 10 -470 14 -632 l6 -293 73 4 c40 2 74 5 76 8 2 3
1 120 -2 260 -3 140 -4 257 -3 258 1 2 185 -109 408 -248 224 -138 413 -254
421 -257 11 -4 14 37 16 244 l3 249 403 -249 c222 -137 405 -247 408 -245 2 3
3 280 2 616 l-3 612 -405 -250 -405 -250 -5 250 -5 250 -420 -259 -420 -259
-6 136 c-4 76 -7 194 -8 265 l-1 127 -77 0 -76 0 6 -337z"/>
<path d="M2915 3475 c-269 -167 -491 -307 -492 -312 -2 -8 959 -605 984 -611
10 -3 13 47 13 242 0 135 3 246 6 246 3 0 179 -108 392 -239 213 -132 395
-243 405 -246 16 -7 17 27 17 609 0 339 -2 616 -4 616 -2 0 -186 -112 -408
-249 l-403 -249 -3 249 c-1 137 -6 249 -10 248 -4 0 -227 -137 -497 -304z"/>
<path d="M5270 3166 c0 -339 3 -616 6 -616 8 0 995 612 992 615 -2 2 -962 595
-990 612 -5 2 -8 -273 -8 -611z"/>
<path d="M8340 3164 c0 -537 2 -615 15 -611 8 4 215 130 460 282 245 151 448
275 450 275 3 0 5 -126 5 -281 0 -228 2 -280 13 -277 26 6 986 603 984 611 -4
15 -982 615 -989 608 -4 -4 -9 -131 -10 -282 l-3 -276 -435 269 c-239 148
-447 276 -462 284 l-28 15 0 -617z"/>
<path d="M6732 3164 l3 -535 140 0 140 0 3 535 2 536 -145 0 -145 0 2 -536z"/>
<path d="M7160 3166 l0 -535 141 -3 c77 -2 143 -1 145 1 2 2 4 244 4 538 l0
533 -145 0 -145 0 0 -534z"/>
<path d="M12465 3394 c4 -172 3 -275 -2 -273 -6 2 -203 123 -439 269 -236 146
-431 264 -434 263 -3 -2 -7 -129 -10 -282 l-5 -279 -445 275 c-245 151 -453
279 -462 284 -17 9 -18 -23 -18 -607 0 -550 2 -616 15 -610 9 3 216 129 461
281 245 151 447 275 450 275 2 0 4 -126 4 -280 0 -162 4 -280 9 -280 5 0 204
121 443 268 l433 268 7 -41 c3 -22 7 -130 7 -240 1 -110 4 -217 7 -237 l7 -38
68 0 c37 0 70 4 73 8 5 9 -8 685 -20 1060 l-6 192 -75 0 -76 0 8 -276z"/>
</g>
</svg>
